<svg xmlns="http://www.w3.org/2000/svg" height="800" width="1200" version="1.0" viewBox="-21.255555 -6.339075 184.21481 38.03445"><path d="M119.51 25.3562c-2.8288 0-5.1225-2.27-5.1225-5.0712V5.0712c0-2.8 2.2937-5.0712 5.1225-5.0712h17.0737c2.8275 0 5.12 2.2713 5.12 5.0713V20.285c0 2.8013-2.2925 5.0713-5.12 5.0713zm-118.6563 0C.3825 25.3562 0 24.9776 0 24.51V.845C0 .3788.3825 0 .8537 0H24.755c.4725 0 .855.3787.855.845v3.3813c0 .4662-.3825.845-.855.845H7.6825c-.4713 0-.8538.3787-.8538.845v3.3812c0 .4662.3825.845.8538.845h15.3662c.4713 0 .8538.3775.8538.845v3.3813c0 .4662-.3825.8437-.8538.8437H7.6825c-.4713 0-.8538.3787-.8538.8462V24.51c0 .4675-.3812.8462-.8537.8462zM27.3162.845c0-.4662.3825-.845.8538-.845h25.61c.4712 0 .8525.3787.8525.845v3.3813c0 .4662-.3813.845-.8525.845H34.9987c-.4712 0-.8537.3787-.8537.845v3.3812c0 .4662.3825.845.8537.845h17.0738c.4712 0 .8537.3775.8537.845v3.3813c0 .4662-.3825.8437-.8537.8437H34.9987c-.4712 0-.8537.3787-.8537.8462V19.44c0 .4662.3825.845.8537.845H53.78c.4712 0 .8525.3775.8525.8438V24.51c0 .4675-.3813.8462-.8525.8462H28.17c-.4713 0-.8538-.3787-.8538-.8462zM56.34 10.1425c0 2.8 2.2937 5.07 5.1212 5.07H75.12c.9425 0 1.7087.7575 1.7087 1.6912v1.69c0 .9338-.7662 1.6913-1.7087 1.6913H64.0225c-.47 0-.8538-.3787-.8538-.845 0-.4675-.3812-.8462-.8525-.8462h-5.1225c-.4712 0-.8537.3787-.8537.8462v.845c0 2.8013 2.2937 5.0713 5.1212 5.0713H78.535c2.8287 0 5.1212-2.27 5.1212-5.0713v-5.0725c0-2.8-2.2925-5.07-5.1212-5.07H64.8762c-.9425 0-1.7075-.7575-1.7075-1.69V6.7612c0-.9337.765-1.69 1.7075-1.69h11.0975c.4725 0 .855.3788.855.845 0 .4676.3813.845.8525.845h5.1225c.4713 0 .8525-.3774.8525-.845v-.845c0-2.8-2.2925-5.0712-5.1212-5.0712H61.4612C58.6337 0 56.34 2.2713 56.34 5.0713zM85.3637.845c0-.4662.3825-.845.855-.845h25.6088c.4712 0 .8525.3787.8525.845v3.3813c0 .4662-.3813.845-.8525.845H103.29c-.4713 0-.8525.3787-.8525.845V24.51c0 .4675-.3825.8462-.8538.8462h-5.1225c-.4712 0-.8537-.3787-.8537-.8462V5.9162c0-.4662-.3825-.845-.8538-.845h-8.535c-.4725 0-.855-.3787-.855-.845zm37.5613 19.44c-.9438 0-1.7075-.7575-1.7075-1.6912V6.7612c0-.9337.7637-1.69 1.7075-1.69h10.2437c.9438 0 1.7075.7563 1.7075 1.69v11.8326c0 .9337-.7637 1.6912-1.7075 1.6912H122.925" fill="#09f" fill-rule="evenodd"/></svg>